<?xml version="1.0" encoding="utf-8"?><svg xmlns="http://www.w3.org/2000/svg" xmlns:xlink="http://www.w3.org/1999/xlink" width="3000" height="754" preserveAspectRatio="xMidYMid" viewBox="0 0 3000 754" style="z-index:1;margin-right:-2px;display:block;background-repeat-y:initial;background-repeat-x:initial;animation-play-state:paused" ><g transform="translate(1500,377) scale(1,1) translate(-1500,-377)" style="transform:matrix(1, 0, 0, 1, 0, 0);animation-play-state:paused" ><path id="path0" d="M 1746.4893319772723 66.49713036046937
c 0 22.565179274944338 -5.521267269401274 6.481487664079757 -12.00275493348103 6.481487664079757
S 1722.48382211031 89.06230963541371 1722.48382211031 66.49713036046937
s 5.521267269401274 -6.481487664079757 12.00275493348103 -6.481487664079757
S 1746.4893319772723 43.93195108552503 1746.4893319772723 66.49713036046937
z" fill="none" stroke="none" style="animation-play-state:paused" ></path>


<circle cx="0" cy="0" r="5.9646834739741434" fill="#51cacc" transform="translate(1727.7669677734375 56.05438995361328)" style="animation-play-state:paused" ></circle>
<path id="path1" d="M 2330.863587062087 638.4473455199346
c 0 29.77643041794549 -7.285722336305811 8.5528044817503 -15.838526818056112 8.5528044817503
S 2299.186533425975 668.2237759378801 2299.186533425975 638.4473455199346
s 7.285722336305811 -8.5528044817503 15.838526818056112 -8.5528044817503
S 2330.863587062087 608.6709151019892 2330.863587062087 638.4473455199346
z" fill="none" stroke="none" style="animation-play-state:paused" ></path>


<circle cx="0" cy="0" r="4.8784477361326335" fill="#51cacc" transform="translate(2322.815673828125 625.5967407226562)" style="animation-play-state:paused" ></circle>
<path id="path2" d="M 2886.4460913373123 138.18085307723396
c 0 36.04048500481821 -8.818416543732113 10.352054203511614 -19.170470747243726 10.352054203511614
S 2848.105149842825 174.22133808205217 2848.105149842825 138.18085307723396
s 8.818416543732113 -10.352054203511614 19.170470747243726 -10.352054203511614
S 2886.4460913373123 102.14036807241575 2886.4460913373123 138.18085307723396
z" fill="none" stroke="none" style="animation-play-state:paused" ></path>


<circle cx="0" cy="0" r="3.5823786179087302" fill="#ff708e" transform="translate(2849.0009765625 152.58956909179688)" style="animation-play-state:paused" ></circle>
<path id="path3" d="M 468.3671785084068 167.90729262969026
c 0 33.51703158561345 -8.200975813501163 9.627232476718758 -17.82820829021992 9.627232476718758
S 432.71076192796704 201.42432421530373 432.71076192796704 167.90729262969026
s 8.200975813501163 -9.627232476718758 17.82820829021992 -9.627232476718758
S 468.3671785084068 134.3902610440768 468.3671785084068 167.90729262969026
z" fill="none" stroke="none" style="animation-play-state:paused" ></path>


<circle cx="0" cy="0" r="3.48380977120965" fill="#51cacc" transform="translate(468.1552734375 159.90911865234375)" style="animation-play-state:paused" ></circle>
<path id="path4" d="M 947.4658867162563 561.8383881843705
c 0 29.450369297831912 -7.2059414239375945 8.459148628100657 -15.66509005203825 8.459148628100657
S 916.1357066121797 591.2887574822024 916.1357066121797 561.8383881843705
s 7.2059414239375945 -8.459148628100657 15.66509005203825 -8.459148628100657
S 947.4658867162563 532.3880188865386 947.4658867162563 561.8383881843705
z" fill="none" stroke="none" style="animation-play-state:paused" ></path>


<circle cx="0" cy="0" r="3.3246202408165892" fill="#9df871" transform="translate(937.06201171875 572.5274047851562)" style="animation-play-state:paused" ></circle>
<path id="path5" d="M 1910.9309969300236 278.58439200780515
c 0 31.120578216322908 -7.61460956356837 8.938889487667218 -16.55349905123559 8.938889487667218
S 1877.8239988275525 309.70497022412803 1877.8239988275525 278.58439200780515
s 7.61460956356837 -8.938889487667218 16.55349905123559 -8.938889487667218
S 1910.9309969300236 247.46381379148224 1910.9309969300236 278.58439200780515
z" fill="none" stroke="none" style="animation-play-state:paused" ></path>


<circle cx="0" cy="0" r="3.7470781620556943" fill="#51cacc" transform="translate(1902.666748046875 265.0256652832031)" style="animation-play-state:paused" ></circle>
<path id="path6" d="M 1558.0860097468867 508.97537391420707
c 0 32.88858040497148 -8.047205843769616 9.446719903555637 -17.493925747325253 9.446719903555637
S 1523.0981582522363 541.8639543191786 1523.0981582522363 508.97537391420707
s 8.047205843769616 -9.446719903555637 17.493925747325253 -9.446719903555637
S 1558.0860097468867 476.0867935092356 1558.0860097468867 508.97537391420707
z" fill="none" stroke="none" style="animation-play-state:paused" ></path>


<circle cx="0" cy="0" r="4.343755185066115" fill="#ff708e" transform="translate(1552.20849609375 492.3338623046875)" style="animation-play-state:paused" ></circle>
<path id="path7" d="M 102.99085009062371 201.19007907223124
c 0 30.540893711118088 -7.47277186548634 8.772384363831792 -16.24515622931813 8.772384363831792
S 70.50053763198746 231.73097278334933 70.50053763198746 201.19007907223124
s 7.47277186548634 -8.772384363831792 16.24515622931813 -8.772384363831792
S 102.99085009062371 170.64918536111315 102.99085009062371 201.19007907223124
z" fill="none" stroke="none" style="animation-play-state:paused" ></path>


<circle cx="0" cy="0" r="5.314213000238274" fill="#51cacc" transform="translate(76.6005859375 216.1787872314453)" style="animation-play-state:paused" ></circle>
<path id="path8" d="M 2959.713048696082 731.8184695922735
c 0 37.362411794622254 -9.141866715705444 10.731756579306392 -19.873623295011836 10.731756579306392
S 2919.965802106058 769.1808813868957 2919.965802106058 731.8184695922735
s 9.141866715705444 -10.731756579306392 19.873623295011836 -10.731756579306392
S 2959.713048696082 694.4560577976512 2959.713048696082 731.8184695922735
z" fill="none" stroke="none" style="animation-play-state:paused" ></path>


<circle cx="0" cy="0" r="4.152390704136682" fill="#9df871" transform="translate(2932.728271484375 745.7138061523438)" style="animation-play-state:paused" ></circle>
<path id="path9" d="M 2449.858725437787 211.44530305505518
c 0 25.02989820966287 -6.12433679598134 7.1894388474563575 -13.313775643437697 7.1894388474563575
S 2423.231174150912 236.47520126471804 2423.231174150912 211.44530305505518
s 6.12433679598134 -7.1894388474563575 13.313775643437697 -7.1894388474563575
S 2449.858725437787 186.41540484539232 2449.858725437787 211.44530305505518
z" fill="none" stroke="none" style="animation-play-state:paused" ></path>


<circle cx="0" cy="0" r="5.068102762399053" fill="#ff708e" transform="translate(2438.119873046875 203.9872589111328)" style="animation-play-state:paused" ></circle>
<path id="path10" d="M 1354.5799291773753 348.4989369727583
c 0 32.4789359428526 -7.946973688144785 9.329056068691706 -17.27602975683649 9.329056068691706
S 1320.0278696637022 380.97787291561093 1320.0278696637022 348.4989369727583
s 7.946973688144785 -9.329056068691706 17.27602975683649 -9.329056068691706
S 1354.5799291773753 316.0200010299057 1354.5799291773753 348.4989369727583
z" fill="none" stroke="none" style="animation-play-state:paused" ></path>


<circle cx="0" cy="0" r="4.396782797325075" fill="#51cacc" transform="translate(1332.6517333984375 337.5197448730469)" style="animation-play-state:paused" ></circle>
<path id="path11" d="M 1807.152015390353 619.0805404286774
c 0 26.954217515518028 -6.595180881456538 7.742168860840285 -14.337349742296823 7.742168860840285
S 1778.4773159057595 646.0347579441955 1778.4773159057595 619.0805404286774
s 6.595180881456538 -7.742168860840285 14.337349742296823 -7.742168860840285
S 1807.152015390353 592.1263229131594 1807.152015390353 619.0805404286774
z" fill="none" stroke="none" style="animation-play-state:paused" ></path>


<circle cx="0" cy="0" r="5.678983377544067" fill="#ff708e" transform="translate(1798.565185546875 629.603515625)" style="animation-play-state:paused" ></circle>
<path id="path12" d="M 1566.1622610040904 536.0385852175269
c 0 31.214716310085166 -7.637643352467647 8.965929152896804 -16.60357250536445 8.965929152896804
S 1532.9551159933617 567.253301527612 1532.9551159933617 536.0385852175269
s 7.637643352467647 -8.965929152896804 16.60357250536445 -8.965929152896804
S 1566.1622610040904 504.82386890744175 1566.1622610040904 536.0385852175269
z" fill="none" stroke="none" style="animation-play-state:paused" ></path>


<circle cx="0" cy="0" r="4.138642782485249" fill="#51cacc" transform="translate(1533.4039306640625 525.720947265625)" style="animation-play-state:paused" ></circle>
<path id="path13" d="M 503.3573853142698 156.60749145022743
c 0 28.971477307855885 -7.0887657242626085 8.321594545873499 -15.410360270136108 8.321594545873499
S 472.5366647739976 185.5789687580833 472.5366647739976 156.60749145022743
s 7.0887657242626085 -8.321594545873499 15.410360270136108 -8.321594545873499
S 503.3573853142698 127.63601414237155 503.3573853142698 156.60749145022743
z" fill="none" stroke="none" style="animation-play-state:paused" ></path>


<circle cx="0" cy="0" r="4.020740693724539" fill="#ff708e" transform="translate(475.8629455566406 172.0575408935547)" style="animation-play-state:paused" ></circle>
<path id="path14" d="M 2854.0346979445867 252.9449108274076
c 0 19.736292639037412 -4.829092879764472 5.668935119723512 -10.498027999487984 5.668935119723512
S 2833.038641945611 272.681203466445 2833.038641945611 252.9449108274076
s 4.829092879764472 -5.668935119723512 10.498027999487984 -5.668935119723512
S 2854.0346979445867 233.2086181883702 2854.0346979445867 252.9449108274076
z" fill="none" stroke="none" style="animation-play-state:paused" ></path>


<circle cx="0" cy="0" r="3.2242346103591726" fill="#51cacc" transform="translate(2853.736328125 259.59002685546875)" style="animation-play-state:paused" ></circle>
<path id="path15" d="M 117.02611819269646 680.0193101030765
c 0 29.076278542950774 -7.114408579658167 8.351697028294371 -15.466105607952539 8.351697028294371
S 86.09390697679137 709.0955886460272 86.09390697679137 680.0193101030765
s 7.114408579658167 -8.351697028294371 15.466105607952539 -8.351697028294371
S 117.02611819269646 650.9430315601257 117.02611819269646 680.0193101030765
z" fill="none" stroke="none" style="animation-play-state:paused" ></path>


<circle cx="0" cy="0" r="4.229871989739151" fill="#de9dd6" transform="translate(86.21146392822266 674.2967529296875)" style="animation-play-state:paused" ></circle>
<path id="path16" d="M 2770.8249854052765 34.19965003257695
c 0 36.021076775970634 -8.813667721780048 10.346479499480926 -19.160147221260974 10.346479499480926
S 2732.5046909627545 70.22072680854758 2732.5046909627545 34.19965003257695
s 8.813667721780048 -10.346479499480926 19.160147221260974 -10.346479499480926
S 2770.8249854052765 -1.8214267433936868 2770.8249854052765 34.19965003257695
z" fill="none" stroke="none" style="animation-play-state:paused" ></path>


<circle cx="0" cy="0" r="5.8508218847778455" fill="#51cacc" transform="translate(2732.6875 26.370548248291016)" style="animation-play-state:paused" ></circle>
<path id="path17" d="M 925.2332618107633 547.5666601835725
c 0 32.825510545384404 -8.031773856849375 9.42860409282318 -17.460377949672555 9.42860409282318
S 890.3125059114183 580.3921707289569 890.3125059114183 547.5666601835725
s 8.031773856849375 -9.42860409282318 17.460377949672555 -9.42860409282318
S 925.2332618107633 514.7411496381881 925.2332618107633 547.5666601835725
z" fill="none" stroke="none" style="animation-play-state:paused" ></path>


<circle cx="0" cy="0" r="3.911040429498456" fill="#e0ff77" transform="translate(904.9254760742188 557.646728515625)" style="animation-play-state:paused" ></circle>
<path id="path18" d="M 2445.99440725892 90.12660760917062
c 0 19.045468081152173 -4.660061339005319 5.470506789267114 -10.130568128272433 5.470506789267114
S 2425.733271002375 109.1720756903228 2425.733271002375 90.12660760917062
s 4.660061339005319 -5.470506789267114 10.130568128272433 -5.470506789267114
S 2445.99440725892 71.08113952801844 2445.99440725892 90.12660760917062
z" fill="none" stroke="none" style="animation-play-state:paused" ></path>


<circle cx="0" cy="0" r="3.617572518876356" fill="#e0ff77" transform="translate(2445.982666015625 88.57037353515625)" style="animation-play-state:paused" ></circle>
<path id="path19" d="M 1630.1489582528627 110.85546624902753
c 0 33.72958606860131 -8.252983825296063 9.688285360130163 -17.941269185426226 9.688285360130163
S 1594.26641988201 144.58505231762882 1594.26641988201 110.85546624902753
s 8.252983825296063 -9.688285360130163 17.941269185426226 -9.688285360130163
S 1630.1489582528627 77.12588018042622 1630.1489582528627 110.85546624902753
z" fill="none" stroke="none" style="animation-play-state:paused" ></path>


<circle cx="0" cy="0" r="4.131033863291857" fill="#9df871" transform="translate(1630.0321044921875 104.649658203125)" style="animation-play-state:paused" ></circle>
<path id="path20" d="M 2326.9421353572243 295.73198714145803
c 0 35.80720046944157 -8.761336285076128 10.285046943350238 -19.046383228426368 10.285046943350238
S 2288.8493689003717 331.5391876108996 2288.8493689003717 295.73198714145803
s 8.761336285076128 -10.285046943350238 19.046383228426368 -10.285046943350238
S 2326.9421353572243 259.92478667201647 2326.9421353572243 295.73198714145803
z" fill="none" stroke="none" style="animation-play-state:paused" ></path>


<circle cx="0" cy="0" r="3.287663102671912" fill="#e0ff77" transform="translate(2311.08251953125 306.76397705078125)" style="animation-play-state:paused" ></circle>
<path id="path21" d="M 2816.7614943660938 427.7999622501758
c 0 32.793884634122136 -8.024035601966053 9.419520054481891 -17.443555656447945 9.419520054481891
S 2781.8743830531976 460.59384688429793 2781.8743830531976 427.7999622501758
s 8.024035601966053 -9.419520054481891 17.443555656447945 -9.419520054481891
S 2816.7614943660938 395.00607761605363 2816.7614943660938 427.7999622501758
z" fill="none" stroke="none" style="animation-play-state:paused" ></path>


<circle cx="0" cy="0" r="4.226147207603595" fill="#ff708e" transform="translate(2782.73486328125 441.1385803222656)" style="animation-play-state:paused" ></circle>
<path id="path22" d="M 1491.052719727989 523.7807970593858
c 0 25.877812721439195 -6.331805240352142 7.4329887604133855 -13.764794000765528 7.4329887604133855
S 1463.523131726458 549.658609780825 1463.523131726458 523.7807970593858
s 6.331805240352142 -7.4329887604133855 13.764794000765528 -7.4329887604133855
S 1491.052719727989 497.90298433794663 1491.052719727989 523.7807970593858
z" fill="none" stroke="none" style="animation-play-state:paused" ></path>


<circle cx="0" cy="0" r="5.468311687032313" fill="#ff708e" transform="translate(1464.5242919921875 512.0025024414062)" style="animation-play-state:paused" ></circle>
<path id="path23" d="M 1912.3957034736939 49.42396555244757
c 0 28.57806350966702 -6.992504901301505 8.208592710223506 -15.201097611525011 8.208592710223506
S 1881.9935082506438 78.00202906211459 1881.9935082506438 49.42396555244757
s 6.992504901301505 -8.208592710223506 15.201097611525011 -8.208592710223506
S 1912.3957034736939 20.845902042780548 1912.3957034736939 49.42396555244757
z" fill="none" stroke="none" style="animation-play-state:paused" ></path>


<circle cx="0" cy="0" r="3.1660718520559357" fill="#de9dd6" transform="translate(1912.357666015625 46.06648635864258)" style="animation-play-state:paused" ></circle>
<path id="path24" d="M 1502.435979845504 349.8657022752788
c 0 21.891590292421807 -5.356452943890441 6.2880099776105185 -11.64446292150096 6.2880099776105185
S 1479.1470540025023 371.75729256770063 1479.1470540025023 349.8657022752788
s 5.356452943890441 -6.2880099776105185 11.64446292150096 -6.2880099776105185
S 1502.435979845504 327.974111982857 1502.435979845504 349.8657022752788
z" fill="none" stroke="none" style="animation-play-state:paused" ></path>


<circle cx="0" cy="0" r="3.449721416896053" fill="#ff708e" transform="translate(1480.49169921875 338.8276062011719)" style="animation-play-state:paused" ></circle>
<path id="path25" d="M 1941.7885661160408 443.5593900495246
c 0 19.99253496605157 -4.891790470416873 5.742536639185025 -10.634327109601898 5.742536639185025
S 1920.5199118968371 463.55192501557616 1920.5199118968371 443.5593900495246
s 4.891790470416873 -5.742536639185025 10.634327109601898 -5.742536639185025
S 1941.7885661160408 423.56685508347306 1941.7885661160408 443.5593900495246
z" fill="none" stroke="none" style="animation-play-state:paused" ></path>


<circle cx="0" cy="0" r="4.435260280288931" fill="#de9dd6" transform="translate(1920.5220947265625 442.99346923828125)" style="animation-play-state:paused" ></circle>
<path id="path26" d="M 988.5537532387015 157.06411625169062
c 0 33.5684152080897 -8.213548401979393 9.641991602323637 -17.85554000430303 9.641991602323637
S 952.8426732300953 190.63253145978032 952.8426732300953 157.06411625169062
s 8.213548401979393 -9.641991602323637 17.85554000430303 -9.641991602323637
S 988.5537532387015 123.49570104360092 988.5537532387015 157.06411625169062
z" fill="none" stroke="none" style="animation-play-state:paused" ></path>


<circle cx="0" cy="0" r="3.777799808985055" fill="#de9dd6" transform="translate(987.5980224609375 143.06105041503906)" style="animation-play-state:paused" ></circle>
<path id="path27" d="M 2137.726574491296 725.6099389845356
c 0 32.72496587095017 -8.00717250033887 9.39972423952824 -17.40689673986711 9.39972423952824
S 2102.912781011562 758.3349048554858 2102.912781011562 725.6099389845356
s 8.00717250033887 -9.39972423952824 17.40689673986711 -9.39972423952824
S 2137.726574491296 692.8849731135854 2137.726574491296 725.6099389845356
z" fill="none" stroke="none" style="animation-play-state:paused" ></path>


<circle cx="0" cy="0" r="5.4439868847389485" fill="#e0ff77" transform="translate(2103.3427734375 715.1551513671875)" style="animation-play-state:paused" ></circle>
<path id="path28" d="M 1205.6831889997054 312.3537439154836
c 0 32.854980615919985 -8.038984618788932 9.437068900317444 -17.476053519106376 9.437068900317444
S 1170.7310819614925 345.2087245314036 1170.7310819614925 312.3537439154836
s 8.038984618788932 -9.437068900317444 17.476053519106376 -9.437068900317444
S 1205.6831889997054 279.4987632995636 1205.6831889997054 312.3537439154836
z" fill="none" stroke="none" style="animation-play-state:paused" ></path>


<circle cx="0" cy="0" r="5.701883250688914" fill="#de9dd6" transform="translate(1197.4517822265625 327.0962219238281)" style="animation-play-state:paused" ></circle>
<path id="path29" d="M 2601.952289714325 229.75474156001675
c 0 31.44414579919848 -7.693780355123032 9.031829112535734 -16.725609467658767 9.031829112535734
S 2568.501070779008 261.19888735921523 2568.501070779008 229.75474156001675
s 7.693780355123032 -9.031829112535734 16.725609467658767 -9.031829112535734
S 2601.952289714325 198.31059576081827 2601.952289714325 229.75474156001675
z" fill="none" stroke="none" style="animation-play-state:paused" ></path>


<circle cx="0" cy="0" r="3.5189338568827786" fill="#9df871" transform="translate(2595.2763671875 214.63490295410156)" style="animation-play-state:paused" ></circle>
<path id="path30" d="M 1809.7833693669998 606.9407138371613
c 0 24.90677804108045 -6.0942116483494715 7.154074543714598 -13.24828619206407 7.154074543714598
S 1783.2867969828715 631.8474918782417 1783.2867969828715 606.9407138371613
s 6.0942116483494715 -7.154074543714598 13.24828619206407 -7.154074543714598
S 1809.7833693669998 582.0339357960809 1809.7833693669998 606.9407138371613
z" fill="none" stroke="none" style="animation-play-state:paused" ></path>


<circle cx="0" cy="0" r="3.4183176169759104" fill="#e0ff77" transform="translate(1791.2073974609375 597.205810546875)" style="animation-play-state:paused" ></circle>
<path id="path31" d="M 1867.406964058538 288.62743431779404
c 0 26.96099530051093 -6.596839275656929 7.744115671423353 -14.340954947080283 7.744115671423353
S 1838.7250541643775 315.588429618305 1838.7250541643775 288.62743431779404
s 6.596839275656929 -7.744115671423353 14.340954947080283 -7.744115671423353
S 1867.406964058538 261.6664390172831 1867.406964058538 288.62743431779404
z" fill="none" stroke="none" style="animation-play-state:paused" ></path>


<circle cx="0" cy="0" r="3.1213836208505104" fill="#9df871" transform="translate(1842.363525390625 274.3635559082031)" style="animation-play-state:paused" ></circle>
<path id="path32" d="M 2161.204255532699 687.0521982066307
c 0 35.93045551210164 -8.791494433812101 10.320449987518556 -19.11194442133066 10.320449987518556
S 2122.980366690038 722.9826537187323 2122.980366690038 687.0521982066307
s 8.791494433812101 -10.320449987518556 19.11194442133066 -10.320449987518556
S 2161.204255532699 651.1217426945291 2161.204255532699 687.0521982066307
z" fill="none" stroke="none" style="animation-play-state:paused" ></path>


<circle cx="0" cy="0" r="5.02777933821907" fill="#ff708e" transform="translate(2145.50390625 675.8843383789062)" style="animation-play-state:paused" ></circle>
<path id="path33" d="M 2477.6807743145214 278.9172698571262
c 0 19.874854051477232 -4.862996204084854 5.708734674360482 -10.571730878445337 5.708734674360482
S 2456.537312557631 298.79212390860346 2456.537312557631 278.9172698571262
s 4.862996204084854 -5.708734674360482 10.571730878445337 -5.708734674360482
S 2477.6807743145214 259.04241580564894 2477.6807743145214 278.9172698571262
z" fill="none" stroke="none" style="animation-play-state:paused" ></path>


<circle cx="0" cy="0" r="4.593582538982443" fill="#51cacc" transform="translate(2465.34228515625 272.7948913574219)" style="animation-play-state:paused" ></circle>
<path id="path34" d="M 1337.5705644790894 224.48759142430683
c 0 28.89008574957612 -7.068850768513305 8.298216119559099 -15.367066888072403 8.298216119559099
S 1306.8364307029444 253.37767717388294 1306.8364307029444 224.48759142430683
s 7.068850768513305 -8.298216119559099 15.367066888072403 -8.298216119559099
S 1337.5705644790894 195.5975056747307 1337.5705644790894 224.48759142430683
z" fill="none" stroke="none" style="animation-play-state:paused" ></path>


<circle cx="0" cy="0" r="3.4214304780392593" fill="#e0ff77" transform="translate(1336.1966552734375 238.31893920898438)" style="animation-play-state:paused" ></circle>
<path id="path35" d="M 2661.598262434606 218.307624847654
c 0 35.2163437784074 -8.61676496705713 10.115332787414893 -18.732097754472022 10.115332787414893
S 2624.1340669256624 253.52396862606142 2624.1340669256624 218.307624847654
s 8.61676496705713 -10.115332787414893 18.732097754472022 -10.115332787414893
S 2661.598262434606 183.0912810692466 2661.598262434606 218.307624847654
z" fill="none" stroke="none" style="animation-play-state:paused" ></path>


<circle cx="0" cy="0" r="3.6671705720606713" fill="#e0ff77" transform="translate(2654.016845703125 201.45790100097656)" style="animation-play-state:paused" ></circle>
<path id="path36" d="M 2892.622671598568 562.2576701108395
c 0 29.69616150277043 -7.2660820698268065 8.529748516753209 -15.795830586580015 8.529748516753209
S 2861.031010425408 591.95383161361 2861.031010425408 562.2576701108395
s 7.2660820698268065 -8.529748516753209 15.795830586580015 -8.529748516753209
S 2892.622671598568 532.5615086080691 2892.622671598568 562.2576701108395
z" fill="none" stroke="none" style="animation-play-state:paused" ></path>


<circle cx="0" cy="0" r="3.2223799020036914" fill="#9df871" transform="translate(2879.775146484375 552.96630859375)" style="animation-play-state:paused" ></circle>
<path id="path37" d="M 823.0784804449434 298.02683601125364
c 0 23.779443009970407 -5.818374353503397 6.830265545417032 -12.648639898920429 6.830265545417032
S 797.7812006471024 321.80627902122404 797.7812006471024 298.02683601125364
s 5.818374353503397 -6.830265545417032 12.648639898920429 -6.830265545417032
S 823.0784804449434 274.2473930012832 823.0784804449434 298.02683601125364
z" fill="none" stroke="none" style="animation-play-state:paused" ></path>


<circle cx="0" cy="0" r="5.868990238418924" fill="#de9dd6" transform="translate(804.0010375976562 287.5840148925781)" style="animation-play-state:paused" ></circle>
<path id="path38" d="M 359.1099260668159 486.67659672525184
c 0 20.550249170243905 -5.0282524565490405 5.902731144644527 -10.930983601193567 5.902731144644527
S 337.2479588644287 507.2268458954957 337.2479588644287 486.67659672525184
s 5.0282524565490405 -5.902731144644527 10.930983601193567 -5.902731144644527
S 359.1099260668159 466.12634755500795 359.1099260668159 486.67659672525184
z" fill="none" stroke="none" style="animation-play-state:paused" ></path>


<circle cx="0" cy="0" r="4.279345727198473" fill="#ff708e" transform="translate(337.6529846191406 494.283447265625)" style="animation-play-state:paused" ></circle>
<path id="path39" d="M 2815.5271371582107 727.4308060631432
c 0 27.031192039522903 -6.614015073500284 7.7642785645438135 -14.378293638044097 7.7642785645438135
S 2786.770549882123 754.4619981026661 2786.770549882123 727.4308060631432
s 6.614015073500284 -7.7642785645438135 14.378293638044097 -7.7642785645438135
S 2815.5271371582107 700.3996140236203 2815.5271371582107 727.4308060631432
z" fill="none" stroke="none" style="animation-play-state:paused" ></path>


<circle cx="0" cy="0" r="5.270743151240167" fill="#9df871" transform="translate(2789.627685546875 713.0172119140625)" style="animation-play-state:paused" ></circle>
<path id="path40" d="M 2116.6464811872575 690.4223811830084
c 0 34.74061725360423 -8.500363796094652 9.978687934545896 -18.47905173064055 9.978687934545896
S 2079.6883777259764 725.1629984366126 2079.6883777259764 690.4223811830084
s 8.500363796094652 -9.978687934545896 18.47905173064055 -9.978687934545896
S 2116.6464811872575 655.6817639294042 2116.6464811872575 690.4223811830084
z" fill="none" stroke="none" style="animation-play-state:paused" ></path>


<circle cx="0" cy="0" r="5.7913984033408585" fill="#51cacc" transform="translate(2101.459228515625 679.628173828125)" style="animation-play-state:paused" ></circle>
<path id="path41" d="M 2042.6434434422865 567.4492236261221
c 0 23.595892890842688 -5.77346315414236 6.777543702688858 -12.551006856831217 6.777543702688858
S 2017.541429728624 591.0451165169649 2017.541429728624 567.4492236261221
s 5.77346315414236 -6.777543702688858 12.551006856831217 -6.777543702688858
S 2042.6434434422865 543.8533307352794 2042.6434434422865 567.4492236261221
z" fill="none" stroke="none" style="animation-play-state:paused" ></path>


<circle cx="0" cy="0" r="5.62936850759065" fill="#ff708e" transform="translate(2032.947265625 575.1045532226562)" style="animation-play-state:paused" ></circle>
<path id="path42" d="M 2192.331822521166 632.539401909074
c 0 23.871524530796215 -5.840904938386307 6.856714492888275 -12.697619431274582 6.856714492888275
S 2166.9365836586167 656.4109264398702 2166.9365836586167 632.539401909074
s 5.840904938386307 -6.856714492888275 12.697619431274582 -6.856714492888275
S 2192.331822521166 608.6678773782777 2192.331822521166 632.539401909074
z" fill="none" stroke="none" style="animation-play-state:paused" ></path>


<circle cx="0" cy="0" r="3.2661067982874163" fill="#51cacc" transform="translate(2166.94775390625 634.1859130859375)" style="animation-play-state:paused" ></circle>
<path id="path43" d="M 535.0310616598322 458.459924070233
c 0 28.982913404694024 -7.091563918169813 8.324879382199347 -15.41644330036916 8.324879382199347
S 504.1981750590939 487.44283747492705 504.1981750590939 458.459924070233
s 7.091563918169813 -8.324879382199347 15.41644330036916 -8.324879382199347
S 535.0310616598322 429.47701066553896 535.0310616598322 458.459924070233
z" fill="none" stroke="none" style="animation-play-state:paused" ></path>


<circle cx="0" cy="0" r="3.3916344946019197" fill="#ff708e" transform="translate(504.64068603515625 448.6628112792969)" style="animation-play-state:paused" ></circle>
<path id="path44" d="M 2057.950891952493 37.12955627434092
c 0 23.59446999469026 -5.773114998700808 6.777134998474863 -12.550249997175671 6.777134998474863
S 2032.8503919581415 60.724026269031185 2032.8503919581415 37.12955627434092
s 5.773114998700808 -6.777134998474863 12.550249997175671 -6.777134998474863
S 2057.950891952493 13.53508627965066 2057.950891952493 37.12955627434092
z" fill="none" stroke="none" style="animation-play-state:paused" ></path>


<circle cx="0" cy="0" r="5.625555934640738" fill="#9df871" transform="translate(2048.8486328125 29.108543395996094)" style="animation-play-state:paused" ></circle>
<path id="path45" d="M 688.0788457840497 469.5638834747386
c 0 29.38588738878262 -7.190163935553193 8.44062722869288 -15.630791164246073 8.44062722869288
S 656.8172634555576 498.9497708635212 656.8172634555576 469.5638834747386
s 7.190163935553193 -8.44062722869288 15.630791164246073 -8.44062722869288
S 688.0788457840497 440.17799608595595 688.0788457840497 469.5638834747386
z" fill="none" stroke="none" style="animation-play-state:paused" ></path>


<circle cx="0" cy="0" r="4.6019316335240905" fill="#9df871" transform="translate(684.1277465820312 485.11566162109375)" style="animation-play-state:paused" ></circle>
<path id="path46" d="M 1100.721297393785 698.1547878250758
c 0 36.284963940278615 -8.878235857727745 10.422276876463007 -19.30051273419075 10.422276876463007
S 1062.1202719254036 734.4397517653545 1062.1202719254036 698.1547878250758
s 8.878235857727745 -10.422276876463007 19.30051273419075 -10.422276876463007
S 1100.721297393785 661.8698238847971 1100.721297393785 698.1547878250758
z" fill="none" stroke="none" style="animation-play-state:paused" ></path>


<circle cx="0" cy="0" r="4.8457847607322195" fill="#e0ff77" transform="translate(1100.54833984375 690.4819946289062)" style="animation-play-state:paused" ></circle>
<path id="path47" d="M 561.1141647381315 520.5915267358425
c 0 21.088221999808454 -5.1598841063361105 6.05725525526413 -11.21713936160024 6.05725525526413
S 538.679886014931 541.679748735651 538.679886014931 520.5915267358425
s 5.1598841063361105 -6.05725525526413 11.21713936160024 -6.05725525526413
S 561.1141647381315 499.50330473603407 561.1141647381315 520.5915267358425
z" fill="none" stroke="none" style="animation-play-state:paused" ></path>


<circle cx="0" cy="0" r="5.345562712332329" fill="#51cacc" transform="translate(544.8209838867188 529.3107299804688)" style="animation-play-state:paused" ></circle>
<path id="path48" d="M 1714.0388629512663 436.57109522954534
c 0 31.256533635124967 -7.647875251147598 8.977940512216746 -16.625815763364344 8.977940512216746
S 1680.7872314245378 467.8276288646703 1680.7872314245378 436.57109522954534
s 7.647875251147598 -8.977940512216746 16.625815763364344 -8.977940512216746
S 1714.0388629512663 405.31456159442035 1714.0388629512663 436.57109522954534
z" fill="none" stroke="none" style="animation-play-state:paused" ></path>


<circle cx="0" cy="0" r="5.084149582618493" fill="#51cacc" transform="translate(1681.995849609375 422.347412109375)" style="animation-play-state:paused" ></circle>
<path id="path49" d="M 2256.196000800761 508.11989981307045
c 0 30.86739399198073 -7.552660232080391 8.86616635939872 -16.41882659147911 8.86616635939872
S 2223.358347617803 538.9872938050512 2223.358347617803 508.11989981307045
s 7.552660232080391 -8.86616635939872 16.41882659147911 -8.86616635939872
S 2256.196000800761 477.2525058210897 2256.196000800761 508.11989981307045
z" fill="none" stroke="none" style="animation-play-state:paused" ></path>


<circle cx="0" cy="0" r="4.200924711856979" fill="#51cacc" transform="translate(2223.397705078125 504.5779113769531)" style="animation-play-state:paused" ></circle>
<path id="path50" d="M 2408.222200975266 50.995924304976135
c 0 32.49146612134871 -7.950039582883194 9.332655162515055 -17.28269474539825 9.332655162515055
S 2373.6568114844695 83.48739042632485 2373.6568114844695 50.995924304976135
s 7.950039582883194 -9.332655162515055 17.28269474539825 -9.332655162515055
S 2408.222200975266 18.504458183627428 2408.222200975266 50.995924304976135
z" fill="none" stroke="none" style="animation-play-state:paused" ></path>


<circle cx="0" cy="0" r="4.586347108661437" fill="#51cacc" transform="translate(2380.044921875 34.972686767578125)" style="animation-play-state:paused" ></circle>
<path id="path51" d="M 290.18256494505715 119.39383346251248
c 0 33.649220334317256 -8.233319869035071 9.665201585389 -17.89852145442407 9.665201585389
S 254.38552203620898 153.04305379682972 254.38552203620898 119.39383346251248
s 8.233319869035071 -9.665201585389 17.89852145442407 -9.665201585389
S 290.18256494505715 85.74461312819523 290.18256494505715 119.39383346251248
z" fill="none" stroke="none" style="animation-play-state:paused" ></path>


<circle cx="0" cy="0" r="5.999620719050149" fill="#ff708e" transform="translate(282.12310791015625 134.81185913085938)" style="animation-play-state:paused" ></circle>
<path id="path52" d="M 867.1202054328448 595.889946473693
c 0 29.196309507092025 -7.143777858118261 8.38617400735622 -15.52995186547448 8.38617400735622
S 836.0603017018959 625.086255980785 836.0603017018959 595.889946473693
s 7.143777858118261 -8.38617400735622 15.52995186547448 -8.38617400735622
S 867.1202054328448 566.693636966601 867.1202054328448 595.889946473693
z" fill="none" stroke="none" style="animation-play-state:paused" ></path>


<circle cx="0" cy="0" r="3.344752911553973" fill="#51cacc" transform="translate(836.1893310546875 601.8700561523438)" style="animation-play-state:paused" ></circle>
<path id="path53" d="M 2266.6756735798276 258.8169526705988
c 0 25.29626753898302 -6.189512270176696 7.2659491867291655 -13.455461456905862 7.2659491867291655
S 2239.7647506660155 284.11322020958187 2239.7647506660155 258.8169526705988
s 6.189512270176696 -7.2659491867291655 13.455461456905862 -7.2659491867291655
S 2266.6756735798276 233.5206851316158 2266.6756735798276 258.8169526705988
z" fill="none" stroke="none" style="animation-play-state:paused" ></path>


<circle cx="0" cy="0" r="5.365773935118126" fill="#51cacc" transform="translate(2239.864013671875 263.73297119140625)" style="animation-play-state:paused" ></circle>
<path id="path54" d="M 1973.625115389963 386.51416574281177
c 0 32.65111387457626 -7.98910233101334 9.37851143205914 -17.36761376307248 9.37851143205914
S 1938.8898878638179 419.165279617388 1938.8898878638179 386.51416574281177
s 7.98910233101334 -9.37851143205914 17.36761376307248 -9.37851143205914
S 1973.625115389963 353.8630518682355 1973.625115389963 386.51416574281177
z" fill="none" stroke="none" style="animation-play-state:paused" ></path>


<circle cx="0" cy="0" r="4.765351579788551" fill="#e0ff77" transform="translate(1950.903564453125 398.01397705078125)" style="animation-play-state:paused" ></circle>
<path id="path55" d="M 1238.014148335553 627.0953468745469
c 0 32.226770659096495 -7.885273671906588 9.256625614846865 -17.141899286753453 9.256625614846865
S 1203.7303497620462 659.3221175336433 1203.7303497620462 627.0953468745469
s 7.885273671906588 -9.256625614846865 17.141899286753453 -9.256625614846865
S 1238.014148335553 594.8685762154504 1238.014148335553 627.0953468745469
z" fill="none" stroke="none" style="animation-play-state:paused" ></path>


<circle cx="0" cy="0" r="4.429356095403384" fill="#de9dd6" transform="translate(1208.084228515625 644.1436157226562)" style="animation-play-state:paused" ></circle>
<path id="path56" d="M 2035.9764971150119 616.1808853851924
c 0 31.5455000019537 -7.718579787712075 9.060941489922872 -16.77952127763495 9.060941489922872
S 2002.4174545597418 647.726385387146 2002.4174545597418 616.1808853851924
s 7.718579787712075 -9.060941489922872 16.77952127763495 -9.060941489922872
S 2035.9764971150119 584.6353853832387 2035.9764971150119 616.1808853851924
z" fill="none" stroke="none" style="animation-play-state:paused" ></path>


<circle cx="0" cy="0" r="3.3175696556828793" fill="#51cacc" transform="translate(2033.0474853515625 632.9136352539062)" style="animation-play-state:paused" ></circle>
<path id="path57" d="M 2745.620431400397 138.15198451200416
c 0 26.784136787712328 -6.5535653842274835 7.6933158858322646 -14.246881270059749 7.6933158858322646
S 2717.1266688602773 164.9361212997165 2717.1266688602773 138.15198451200416
s 6.5535653842274835 -7.6933158858322646 14.246881270059749 -7.6933158858322646
S 2745.620431400397 111.36784772429183 2745.620431400397 138.15198451200416
z" fill="none" stroke="none" style="animation-play-state:paused" ></path>


<circle cx="0" cy="0" r="5.208272060147267" fill="#9df871" transform="translate(2745.024658203125 148.4791717529297)" style="animation-play-state:paused" ></circle>
<path id="path58" d="M 576.22047681141 80.01473309362632
c 0 21.025488796417587 -5.1445344927404735 6.039236143651861 -11.183770636392333 6.039236143651861
S 553.8529355386254 101.04022189004391 553.8529355386254 80.01473309362632
s 5.1445344927404735 -6.039236143651861 11.183770636392333 -6.039236143651861
S 576.22047681141 58.98924429720873 576.22047681141 80.01473309362632
z" fill="none" stroke="none" style="animation-play-state:paused" ></path>


<circle cx="0" cy="0" r="4.354162703131912" fill="#51cacc" transform="translate(576.2193603515625 79.49481201171875)" style="animation-play-state:paused" ></circle>
<path id="path59" d="M 2600.6199098103325 726.2684662961734
c 0 26.592355654077934 -6.506640213231834 7.638229815533023 -14.144870028764858 7.638229815533023
S 2572.330169752803 752.8608219502513 2572.330169752803 726.2684662961734
s 6.506640213231834 -7.638229815533023 14.144870028764858 -7.638229815533023
S 2600.6199098103325 699.6761106420955 2600.6199098103325 726.2684662961734
z" fill="none" stroke="none" style="animation-play-state:paused" ></path>


<circle cx="0" cy="0" r="3.654935719071633" fill="#e0ff77" transform="translate(2600.6171875 726.9659423828125)" style="animation-play-state:paused" ></circle>
<path id="path60" d="M 2580.4656408841947 518.160165973957
c 0 32.25444559050708 -7.892045197677263 9.264574797273312 -17.156619994950574 9.264574797273312
S 2546.1524008942934 550.414611564464 2546.1524008942934 518.160165973957
s 7.892045197677263 -9.264574797273312 17.156619994950574 -9.264574797273312
S 2580.4656408841947 485.9057203834499 2580.4656408841947 518.160165973957
z" fill="none" stroke="none" style="animation-play-state:paused" ></path>


<circle cx="0" cy="0" r="3.1436197550610765" fill="#e0ff77" transform="translate(2576.518798828125 500.99005126953125)" style="animation-play-state:paused" ></circle>
<path id="path61" d="M 1158.8301999635858 669.0119479079141
c 0 32.63081771757945 -7.984136250046034 9.37268168483665 -17.356817934882685 9.37268168483665
S 1124.1165640938204 701.6427656254936 1124.1165640938204 669.0119479079141
s 7.984136250046034 -9.37268168483665 17.356817934882685 -9.37268168483665
S 1158.8301999635858 636.3811301903346 1158.8301999635858 669.0119479079141
z" fill="none" stroke="none" style="animation-play-state:paused" ></path>


<circle cx="0" cy="0" r="4.338887692740272" fill="#9df871" transform="translate(1129.0518798828125 651.97021484375)" style="animation-play-state:paused" ></circle>
<path id="path62" d="M 924.0424878071337 257.67816255433405
c 0 21.002809203530184 -5.138985230651002 6.032721792503351 -11.171707023154354 6.032721792503351
S 901.6990737608251 278.68097175786426 901.6990737608251 257.67816255433405
s 5.138985230651002 -6.032721792503351 11.171707023154354 -6.032721792503351
S 924.0424878071337 236.67535335080387 924.0424878071337 257.67816255433405
z" fill="none" stroke="none" style="animation-play-state:paused" ></path>


<circle cx="0" cy="0" r="4.9951075809657315" fill="#51cacc" transform="translate(908.9166870117188 249.90086364746094)" style="animation-play-state:paused" ></circle>
<path id="path63" d="M 1711.8337277107669 201.53452290961755
c 0 20.334591832626213 -4.975485235642584 5.840787015754338 -10.81627225139692 5.840787015754338
S 1690.2011832079731 221.86911474224377 1690.2011832079731 201.53452290961755
s 4.975485235642584 -5.840787015754338 10.81627225139692 -5.840787015754338
S 1711.8337277107669 181.19993107699133 1711.8337277107669 201.53452290961755
z" fill="none" stroke="none" style="animation-play-state:paused" ></path>


<circle cx="0" cy="0" r="5.137300957465404" fill="#9df871" transform="translate(1710.4171142578125 191.07171630859375)" style="animation-play-state:paused" ></circle>
<path id="path64" d="M 2727.0684015052593 242.49408635740923
c 0 23.87017152765433 -5.840573884426059 6.8563258643262435 -12.696899748752301 6.8563258643262435
S 2701.6746020077544 266.3642578850636 2701.6746020077544 242.49408635740923
s 5.840573884426059 -6.8563258643262435 12.696899748752301 -6.8563258643262435
S 2727.0684015052593 218.6239148297549 2727.0684015052593 242.49408635740923
z" fill="none" stroke="none" style="animation-play-state:paused" ></path>


<circle cx="0" cy="0" r="4.264266819240246" fill="#de9dd6" transform="translate(2701.690673828125 240.44210815429688)" style="animation-play-state:paused" ></circle>
<path id="path65" d="M 2080.3569926536256 575.8953067771572
c 0 33.95133012422718 -8.307240349544946 9.751977801639722 -18.05921815118467 9.751977801639722
S 2044.2385563512562 609.8466369013844 2044.2385563512562 575.8953067771572
s 8.307240349544946 -9.751977801639722 18.05921815118467 -9.751977801639722
S 2080.3569926536256 541.94397665293 2080.3569926536256 575.8953067771572
z" fill="none" stroke="none" style="animation-play-state:paused" ></path>


<circle cx="0" cy="0" r="4.177453495066546" fill="#ff708e" transform="translate(2079.970458984375 586.1676635742188)" style="animation-play-state:paused" ></circle>
<path id="path66" d="M 1230.7030917753118 517.1275109182574
c 0 28.48283000234885 -6.969203085681102 8.181238404929989 -15.15044149061109 8.181238404929989
S 1200.4022087940898 545.6103409206062 1200.4022087940898 517.1275109182574
s 6.969203085681102 -8.181238404929989 15.15044149061109 -8.181238404929989
S 1230.7030917753118 488.6446809159085 1230.7030917753118 517.1275109182574
z" fill="none" stroke="none" style="animation-play-state:paused" ></path>


<circle cx="0" cy="0" r="4.1105405287657" fill="#9df871" transform="translate(1217.8673095703125 508.4471130371094)" style="animation-play-state:paused" ></circle>
<path id="path67" d="M 413.445446857258 403.6377742750978
c 0 28.97167410565584 -7.08881387691579 8.321651072901146 -15.410464949816935 8.321651072901146
S 382.62451695762417 432.60944838075363 382.62451695762417 403.6377742750978
s 7.08881387691579 -8.321651072901146 15.410464949816935 -8.321651072901146
S 413.445446857258 374.66610016944196 413.445446857258 403.6377742750978
z" fill="none" stroke="none" style="animation-play-state:paused" ></path>


<circle cx="0" cy="0" r="3.388262132508514" fill="#ff708e" transform="translate(391.4433288574219 391.98492431640625)" style="animation-play-state:paused" ></circle></g></svg>