<?xml version="1.0" encoding="utf-8"?><svg xmlns="http://www.w3.org/2000/svg" xmlns:xlink="http://www.w3.org/1999/xlink" width="1731" height="703" preserveAspectRatio="xMidYMid" viewBox="0 0 1731 703" style="z-index:1;margin-right:-2px;display:block;background-repeat-y:initial;background-repeat-x:initial;background-color:rgb(241, 242, 243);animation-play-state:paused" ><g transform="translate(865.5,351.5) scale(1,1) translate(-865.5,-351.5)" style="transform:matrix(1, 0, 0, 1, 0, 0);animation-play-state:paused" ><defs style="animation-play-state:paused" ><path id="path-tdnc958epl9-1" d="M-35 -35L35 -35L35 35L-35 35Z" fill="none" stroke="inherit" stroke-width="11.363636363636363" transform="scale(0.22)" style="transform:matrix(0.22, 0, 0, 0.22, 0, 0);animation-play-state:paused" ></path>

  
<path id="path-tdnc958epl9-2" d="M0 -37A37 37 0 0 1 0 37A37 37 0 0 1 0 -37" fill="none" stroke="inherit" stroke-width="11.363636363636363" transform="scale(0.22)" style="transform:matrix(0.22, 0, 0, 0.22, 0, 0);animation-play-state:paused" ></path>

  
<path id="path-tdnc958epl9-3" d="M0 -34.641L40 34.641L-40 34.641Z" fill="none" stroke="inherit" stroke-width="11.363636363636363" transform="scale(0.22)" style="transform:matrix(0.22, 0, 0, 0.22, 0, 0);animation-play-state:paused" ></path></defs>
<path id="path0" d="M 133.27811131911255 501.89327922669383
c 0 50.262453583724934 -12.298259919422057 14.437087731495462 -26.735347650917518 14.437087731495462
S 79.8074160172775 552.1557328104187 79.8074160172775 501.89327922669383
s 12.298259919422057 -14.437087731495462 26.735347650917518 -14.437087731495462
S 133.27811131911255 451.6308256429689 133.27811131911255 501.89327922669383
z" fill="none" stroke="none" style="animation-play-state:paused" ></path>


<use xlink:href="#path-tdnc958epl9-3" x="0" y="0" stroke="#ddeeff" transform="translate(79.83232116699219 505.6142578125)" style="animation-play-state:paused" ></use>
<path id="path1" d="M 142.04588041165886 401.05316794711695
c 0 42.79463787060806 -10.47102841514878 12.292076835174655 -22.763105250323434 12.292076835174655
S 96.51966991101199 443.847805817725 96.51966991101199 401.05316794711695
s 10.47102841514878 -12.292076835174655 22.763105250323434 -12.292076835174655
S 142.04588041165886 358.2585300765089 142.04588041165886 401.05316794711695
z" fill="none" stroke="none" style="animation-play-state:paused" ></path>


<use xlink:href="#path-tdnc958epl9-1" x="0" y="0" stroke="#e1be08" transform="translate(141.94717407226562 407.6117858886719)" style="animation-play-state:paused" ></use>
<path id="path2" d="M 288.90719480265005 678.2163036850711
c 0 62.97696925432556 -15.409258434569018 18.08912946666798 -33.498387901236995 18.08912946666798
S 221.91041900017603 741.1932729393967 221.91041900017603 678.2163036850711
s 15.409258434569018 -18.08912946666798 33.498387901236995 -18.08912946666798
S 288.90719480265005 615.2393344307455 288.90719480265005 678.2163036850711
z" fill="none" stroke="none" style="animation-play-state:paused" ></path>


<use xlink:href="#path-tdnc958epl9-3" x="0" y="0" stroke="#44a81b" transform="translate(266.1904296875 700.7247924804688)" style="animation-play-state:paused" ></use>
<path id="path3" d="M 382.22561262609014 614.9683034184433
c 0 49.018027242989454 -11.993772623284652 14.079646122986334 -26.07341874627099 14.079646122986334
S 330.07877513354816 663.9863306614327 330.07877513354816 614.9683034184433
s 11.993772623284652 -14.079646122986334 26.07341874627099 -14.079646122986334
S 382.22561262609014 565.9502761754538 382.22561262609014 614.9683034184433
z" fill="none" stroke="none" style="animation-play-state:paused" ></path>


<use xlink:href="#path-tdnc958epl9-3" x="0" y="0" stroke="#44a81b" transform="translate(360.31646728515625 629.9830322265625)" style="animation-play-state:paused" ></use>
<path id="path4" d="M 443.7009181179382 306.41145701400006
c 0 34.661428681313836 -8.48098786883211 9.955942280802912 -18.43693014963502 9.955942280802912
S 406.82705781866815 341.0728856953139 406.82705781866815 306.41145701400006
s 8.48098786883211 -9.955942280802912 18.43693014963502 -9.955942280802912
S 443.7009181179382 271.7500283326862 443.7009181179382 306.41145701400006
z" fill="none" stroke="none" style="animation-play-state:paused" ></path>


<use xlink:href="#path-tdnc958epl9-1" x="0" y="0" stroke="#ddeeff" transform="translate(443.5491027832031 313.4852294921875)" style="animation-play-state:paused" ></use>
<path id="path5" d="M 548.9575961844994 323.9196003926355
c 0 34.34109159097857 -8.402607516941565 9.863930563366186 -18.26653808030775 9.863930563366186
S 512.4245200238838 358.2606919836141 512.4245200238838 323.9196003926355
s 8.402607516941565 -9.863930563366186 18.26653808030775 -9.863930563366186
S 548.9575961844994 289.57850880165694 548.9575961844994 323.9196003926355
z" fill="none" stroke="none" style="animation-play-state:paused" ></path>


<use xlink:href="#path-tdnc958epl9-3" x="0" y="0" stroke="#44a81b" transform="translate(519.6884765625 340.4551086425781)" style="animation-play-state:paused" ></use>
<path id="path6" d="M 653.0346632439891 315.39031906146477
c 0 56.53572431943458 -13.83320914198931 16.238984644943976 -30.072193786933283 16.238984644943976
S 592.8902756701225 371.92604338089933 592.8902756701225 315.39031906146477
s 13.83320914198931 -16.238984644943976 30.072193786933283 -16.238984644943976
S 653.0346632439891 258.8545947420302 653.0346632439891 315.39031906146477
z" fill="none" stroke="none" style="animation-play-state:paused" ></path>


<use xlink:href="#path-tdnc958epl9-2" x="0" y="0" stroke="#e1be08" transform="translate(614.7885131835938 334.5514221191406)" style="animation-play-state:paused" ></use>
<path id="path7" d="M 742.9279018422438 576.2434463839695
c 0 60.397945121560134 -14.778220614849818 17.34834593917153 -32.126566554021345 17.34834593917153
S 678.6747687342012 636.6413915055297 678.6747687342012 576.2434463839695
s 14.778220614849818 -17.34834593917153 32.126566554021345 -17.34834593917153
S 742.9279018422438 515.8455012624094 742.9279018422438 576.2434463839695
z" fill="none" stroke="none" style="animation-play-state:paused" ></path>


<use xlink:href="#path-tdnc958epl9-3" x="0" y="0" stroke="#ddeeff" transform="translate(742.4051513671875 592.6456909179688)" style="animation-play-state:paused" ></use>
<path id="path8" d="M 828.4191300683036 521.2807654102055
c 0 61.153600724289525 -14.963115070836798 17.56539595272146 -32.52851102355826 17.56539595272146
S 763.362108021187 582.434366134495 763.362108021187 521.2807654102055
s 14.963115070836798 -17.56539595272146 32.52851102355826 -17.56539595272146
S 828.4191300683036 460.127164685916 828.4191300683036 521.2807654102055
z" fill="none" stroke="none" style="animation-play-state:paused" ></path>


<use xlink:href="#path-tdnc958epl9-1" x="0" y="0" stroke="#e1be08" transform="translate(797.10400390625 538.9141235351562)" style="animation-play-state:paused" ></use>
<path id="path9" d="M 909.2295980102203 659.040520422375
c 0 45.56383544021868 -11.148598033244996 13.087484647722388 -24.236082680967385 13.087484647722388
S 860.7574326482857 704.6043558625937 860.7574326482857 659.040520422375
s 11.148598033244996 -13.087484647722388 24.236082680967385 -13.087484647722388
S 909.2295980102203 613.4766849821564 909.2295980102203 659.040520422375
z" fill="none" stroke="none" style="animation-play-state:paused" ></path>


<use xlink:href="#path-tdnc958epl9-2" x="0" y="0" stroke="#44a81b" transform="translate(908.94091796875 669.9235229492188)" style="animation-play-state:paused" ></use>
<path id="path10" d="M 1074.496033884806 82.43322680976215
c 0 64.93145509504902 -15.887483693469438 18.65052433581195 -34.538008029281386 18.65052433581195
S 1005.4200178262431 147.36468190481116 1005.4200178262431 82.43322680976215
s 15.887483693469438 -18.65052433581195 34.538008029281386 -18.65052433581195
S 1074.496033884806 17.50177171471313 1074.496033884806 82.43322680976215
z" fill="none" stroke="none" style="animation-play-state:paused" ></path>


<use xlink:href="#path-tdnc958epl9-1" x="0" y="0" stroke="#ddeeff" transform="translate(1032.5098876953125 103.26943969726562)" style="animation-play-state:paused" ></use>
<path id="path11" d="M 1100.0618976116407 172.87930754288237
c 0 22.100337452329512 -5.407529376633817 6.3479692682223074 -11.755498644856123 6.3479692682223074
S 1076.5509003219286 194.97964499521188 1076.5509003219286 172.87930754288237
s 5.407529376633817 -6.3479692682223074 11.755498644856123 -6.3479692682223074
S 1100.0618976116407 150.77897009055286 1100.0618976116407 172.87930754288237
z" fill="none" stroke="none" style="animation-play-state:paused" ></path>


<use xlink:href="#path-tdnc958epl9-3" x="0" y="0" stroke="#e1be08" transform="translate(1099.87890625 178.7711181640625)" style="animation-play-state:paused" ></use>
<path id="path12" d="M 1204.701492486784 276.9399271397819
c 0 24.363757379083328 -5.961344890626771 6.998100523779255 -12.959445414406026 6.998100523779255
S 1178.782601657972 301.3036845188652 1178.782601657972 276.9399271397819
s 5.961344890626771 -6.998100523779255 12.959445414406026 -6.998100523779255
S 1204.701492486784 252.57616976069858 1204.701492486784 276.9399271397819
z" fill="none" stroke="none" style="animation-play-state:paused" ></path>


<use xlink:href="#path-tdnc958epl9-2" x="0" y="0" stroke="#44a81b" transform="translate(1201.46533203125 289.846435546875)" style="animation-play-state:paused" ></use>
<path id="path13" d="M 1265.8172795451446 30.256446452311764
c 0 29.421424486268574 -7.198859182810395 8.450834692864378 -15.649693875674773 8.450834692864378
S 1234.5178917937951 59.67787093858034 1234.5178917937951 30.256446452311764
s 7.198859182810395 -8.450834692864378 15.649693875674773 -8.450834692864378
S 1265.8172795451446 0.8350219660431897 1265.8172795451446 30.256446452311764
z" fill="none" stroke="none" style="animation-play-state:paused" ></path>


<use xlink:href="#path-tdnc958epl9-2" x="0" y="0" stroke="#ddeeff" transform="translate(1265.8035888671875 32.370384216308594)" style="animation-play-state:paused" ></use>
<path id="path14" d="M 1393.1927245652178 115.56557798148938
c 0 37.68250235487907 -9.22018674640658 10.823697484912072 -20.04388423131865 10.823697484912072
S 1353.1049561025807 153.24808033636845 1353.1049561025807 115.56557798148938
s 9.22018674640658 -10.823697484912072 20.04388423131865 -10.823697484912072
S 1393.1927245652178 77.88307562661032 1393.1927245652178 115.56557798148938
z" fill="none" stroke="none" style="animation-play-state:paused" ></path>


<use xlink:href="#path-tdnc958epl9-1" x="0" y="0" stroke="#e1be08" transform="translate(1378.138427734375 128.0464630126953)" style="animation-play-state:paused" ></use>
<path id="path15" d="M 1492.467800360566 244.44549884855635
c 0 62.96857044565251 -15.407203406914974 18.08671704290019 -33.493920449815164 18.08671704290019
S 1425.4799594609353 307.41406929420884 1425.4799594609353 244.44549884855635
s 15.407203406914974 -18.08671704290019 33.493920449815164 -18.08671704290019
S 1492.467800360566 181.47692840290384 1492.467800360566 244.44549884855635
z" fill="none" stroke="none" style="animation-play-state:paused" ></path>


<use xlink:href="#path-tdnc958epl9-3" x="0" y="0" stroke="#44a81b" transform="translate(1486.330078125 277.9349365234375)" style="animation-play-state:paused" ></use>
<path id="path16" d="M 1640.2451155948143 653.6751268662155
c 0 60.08443701688491 -14.701511184982477 17.258295738892475 -31.959806923874954 17.258295738892475
S 1576.3255017470642 713.7595638831003 1576.3255017470642 653.6751268662155
s 14.701511184982477 -17.258295738892475 31.959806923874954 -17.258295738892475
S 1640.2451155948143 593.5906898493306 1640.2451155948143 653.6751268662155
z" fill="none" stroke="none" style="animation-play-state:paused" ></path>


<use xlink:href="#path-tdnc958epl9-2" x="0" y="0" stroke="#e1be08" transform="translate(1625.117431640625 680.5717163085938)" style="animation-play-state:paused" ></use>
<path id="path17" d="M 1690.1581062562436 519.2828229529023
c 0 48.27393794275016 -11.81170822003461 13.865918345258024 -25.677626565292634 13.865918345258024
S 1638.8028531256582 567.5567608956525 1638.8028531256582 519.2828229529023
s 11.81170822003461 -13.865918345258024 25.677626565292634 -13.865918345258024
S 1690.1581062562436 471.00888501015214 1690.1581062562436 519.2828229529023
z" fill="none" stroke="none" style="animation-play-state:paused" ></path>


<use xlink:href="#path-tdnc958epl9-2" x="0" y="0" stroke="#e1be08" transform="translate(1662.539306640625 533.3648681640625)" style="animation-play-state:paused" ></use></g></svg>